<!--?xml version="1.0" standalone="no"?-->
              <svg id="sw-js-blob-svg" viewBox="0 0 100 100" xmlns="http://www.w3.org/2000/svg" version="1.1">
                    <defs> 
                        <linearGradient id="sw-gradient" x1="0" x2="1" y1="1" y2="0">
                            <stop id="stop1" stop-color="rgba(248, 117, 55, 1)" offset="0%"></stop>
                            <stop id="stop2" stop-color="rgba(255, 175.395, 44, 1)" offset="100%"></stop>
                        </linearGradient>
                    </defs>
                <path fill="url(#sw-gradient)" d="M20.3,-24.5C26,-19.5,29.9,-12.7,32.1,-5C34.3,2.8,34.6,11.5,31.1,18.3C27.6,25.1,20.1,30,11.8,33.6C3.4,37.2,-5.9,39.4,-13.8,37C-21.7,34.5,-28.1,27.2,-29.6,19.5C-31.2,11.9,-27.8,3.8,-25.4,-3.6C-23,-10.9,-21.6,-17.5,-17.6,-22.8C-13.5,-28.1,-6.8,-32,0.3,-32.3C7.3,-32.7,14.7,-29.4,20.3,-24.5Z" width="100%" height="100%" transform="translate(50 50)" stroke-width="0" style="transition: all 0.3s ease 0s;"></path>
              </svg>